<svg width="24" height="24" viewBox="0 0 24 24" fill="none" xmlns="http://www.w3.org/2000/svg">
<g id="discord">
<path id="Vector" d="M16.4301 18.4076C16.8741 18.2077 17.305 17.9781 17.7201 17.7201L18.3309 17.3404L17.7622 16.9001C17.6276 16.7959 17.4935 16.6864 17.362 16.5737L17.1109 16.3585L16.8146 16.5054C15.2994 17.2565 13.6403 17.6462 11.9601 17.6462C10.2799 17.6462 8.6207 17.2565 7.10556 16.5054L6.8069 16.3573L6.55537 16.5761C6.42773 16.6871 6.29548 16.7951 6.16063 16.898L5.5845 17.3378L6.20026 17.7202C6.61418 17.9772 7.04378 18.2063 7.48632 18.406C7.30197 18.7495 7.10211 19.0839 6.88741 19.4082C5.34542 18.8881 3.89252 18.1187 2.58334 17.1282C2.19611 13.1173 3.16618 9.09174 5.32851 5.73394C6.45619 5.20127 7.64045 4.80763 8.85669 4.56088C8.98142 4.81146 9.0971 5.0668 9.20346 5.32638L9.35328 5.69203L9.74366 5.63076C11.2131 5.40009 12.708 5.40009 14.1775 5.63076L14.5688 5.69217L14.7181 5.32534C14.8235 5.06657 14.9377 4.8118 15.0606 4.56151C16.2759 4.80889 17.4593 5.20272 18.5862 5.73518C20.7757 9.05576 21.7816 13.0562 21.432 17.0554C20.0908 18.0708 18.6048 18.864 17.0279 19.4071C16.8135 19.0838 16.614 18.7502 16.4301 18.4076ZM8.58993 15.4099L8.62494 15.4125L8.65996 15.4101C9.30814 15.3667 9.90957 15.0605 10.3339 14.5639C10.751 14.0759 10.9645 13.4427 10.9336 12.7993C10.9506 12.4847 10.909 12.1693 10.8107 11.8701C10.709 11.5608 10.5486 11.2744 10.338 11.0277C10.1274 10.781 9.87058 10.5789 9.58201 10.4336C9.29341 10.2884 8.97908 10.2031 8.65724 10.1833L8.62504 10.1813L8.59286 10.1835C7.9444 10.2272 7.34284 10.5339 6.91851 11.0309C6.50085 11.52 6.28755 12.1548 6.31959 12.7994C6.29178 13.442 6.5064 14.0734 6.92279 14.5606C7.34583 15.0556 7.94411 15.3625 8.58993 15.4099ZM15.257 15.4099L15.2922 15.4125L15.3273 15.4101C15.9753 15.3663 16.5765 15.0601 17.0007 14.5636C17.4177 14.0758 17.6313 13.4428 17.6007 12.7996C17.6179 12.4849 17.5764 12.1694 17.4781 11.87L17.003 12.026L17.4781 11.87C17.3765 11.5607 17.2161 11.2742 17.0054 11.0275C16.7947 10.7807 16.5378 10.5785 16.2492 10.4333C15.9605 10.2881 15.646 10.2029 15.3241 10.1833L15.2919 10.1813L15.2597 10.1835C14.6114 10.2276 14.0101 10.5343 13.5859 11.0312C13.1683 11.5202 12.9549 12.1548 12.9867 12.7993C12.9589 13.4419 13.1735 14.0733 13.5899 14.5606C14.0129 15.0556 14.6112 15.3625 15.257 15.4099Z" fill="#9CA3AF" stroke="#9CA3AF"/>
</g>
</svg>
