<svg width="24" height="24" viewBox="0 0 24 24" fill="none" xmlns="http://www.w3.org/2000/svg">
<g id="dots-horizontal">
<path id="Vector" d="M6.70002 12C6.70002 12.5039 6.49985 12.9872 6.14353 13.3435C5.78721 13.6998 5.30394 13.9 4.80002 13.9C4.29611 13.9 3.81284 13.6998 3.45652 13.3435C3.1002 12.9872 2.90002 12.5039 2.90002 12C2.90002 11.4961 3.1002 11.0128 3.45652 10.6565C3.81284 10.3002 4.29611 10.1 4.80002 10.1C5.30394 10.1 5.78721 10.3002 6.14353 10.6565C6.49985 11.0128 6.70002 11.4961 6.70002 12ZM13.9 12C13.9 12.5039 13.6998 12.9872 13.3435 13.3435C12.9872 13.6998 12.5039 13.9 12 13.9C11.4961 13.9 11.0128 13.6998 10.6565 13.3435C10.3002 12.9872 10.1 12.5039 10.1 12C10.1 11.4961 10.3002 11.0128 10.6565 10.6565C11.0128 10.3002 11.4961 10.1 12 10.1C12.5039 10.1 12.9872 10.3002 13.3435 10.6565C13.6998 11.0128 13.9 11.4961 13.9 12ZM20.5435 13.3435C20.1872 13.6998 19.7039 13.9 19.2 13.9C18.6961 13.9 18.2128 13.6998 17.8565 13.3435C17.5002 12.9872 17.3 12.5039 17.3 12C17.3 11.4961 17.5002 11.0128 17.8565 10.6565C18.2128 10.3002 18.6961 10.1 19.2 10.1C19.7039 10.1 20.1872 10.3002 20.5435 10.6565C20.8998 11.0128 21.1 11.4961 21.1 12C21.1 12.5039 20.8998 12.9872 20.5435 13.3435Z" fill="#9CA3AF" stroke="#9CA3AF"/>
</g>
</svg>
