<svg width="24" height="24" viewBox="0 0 24 24" fill="none" xmlns="http://www.w3.org/2000/svg">
<g id="open-book">
<path id="Vector" d="M10.5 19.237C10.226 19.1383 9.91731 19.0418 9.59285 18.9495C8.89884 18.752 8.08554 18.5612 7.28081 18.4024C6.47652 18.2437 5.6724 18.1153 4.99707 18.0445C4.65974 18.0092 4.34809 17.9875 4.08114 17.9846C3.82471 17.9818 3.57141 17.9953 3.37065 18.0491L3.30939 18.0655L3.25417 18.0967C3.17759 18.1399 3.08989 18.1631 3 18.1631C2.91011 18.1631 2.82242 18.1399 2.74584 18.0967C2.66934 18.0535 2.60719 17.9921 2.56455 17.9199C2.52196 17.8478 2.5 17.7668 2.5 17.6851V5.2671C2.5013 5.14563 2.55116 5.02719 2.64253 4.93787L2.64253 4.93787L2.64312 4.93729C2.84879 4.73556 3.28596 4.576 3.99039 4.52098C4.66928 4.46795 5.49475 4.51894 6.3604 4.63417C7.90094 4.83923 9.50241 5.23843 10.5 5.54912V19.237ZM21.3571 4.93755L21.3575 4.93787C21.4489 5.0272 21.4987 5.14565 21.5 5.26714V17.6851V17.6856C21.5001 17.7674 21.4782 17.8484 21.4356 17.9206C21.393 17.9929 21.3309 18.0543 21.2544 18.0975C21.1778 18.1408 21.0901 18.164 21.0001 18.1641C20.9102 18.1641 20.8224 18.1409 20.7458 18.0977L20.6902 18.0662L20.6284 18.0498C20.4275 17.9964 20.1741 17.983 19.9173 17.9858C19.65 17.9888 19.3381 18.0105 19.0007 18.0459C18.325 18.1167 17.521 18.2451 16.7169 18.4037C15.9125 18.5625 15.0996 18.7532 14.406 18.9506C14.082 19.0428 13.7737 19.1393 13.5 19.2379V5.54913C14.4975 5.23849 16.0988 4.83949 17.6392 4.63454C18.5048 4.51937 19.3302 4.4684 20.0092 4.52139C20.7137 4.57637 21.1512 4.73583 21.3571 4.93755Z" fill="#9CA3AF" stroke="#9CA3AF"/>
</g>
</svg>
