<svg width="24" height="24" viewBox="0 0 24 24" fill="none" xmlns="http://www.w3.org/2000/svg">
<g id="X">
<path id="Vector" d="M13.8057 10.3551L13.5446 10.661L13.7874 10.9816L20.9943 20.5H15.8775L11.2075 14.3355L10.8323 13.8403L10.4288 14.3127L5.14449 20.5H3.53239L9.81425 13.1429L10.0754 12.837L9.83262 12.5164L3.00574 3.5H8.12239L12.4123 9.16724L12.7877 9.66308L13.1913 9.19001L18.0466 3.5H19.6586L13.8057 10.3551ZM11.5203 13.6368L11.5205 13.6371L16.2195 19.8376L16.3696 20.0356H16.618H18.818H19.8238L19.2166 19.2338L13.4857 11.6655L13.4856 11.6654L12.1107 9.84821L12.1104 9.84775L7.79838 4.16223L7.64833 3.96438H7.4H5.2H4.19388L4.80147 4.76632L10.1453 11.8195L10.1455 11.8198L11.5203 13.6368Z" fill="#9CA3AF" stroke="#9CA3AF"/>
</g>
</svg>
